<?xml version="1.0" encoding="UTF-8" standalone="no"?>
<!-- Created with Inkscape (http://www.inkscape.org/) -->

<svg
   width="64"
   height="64"
   viewBox="0 0 16.933333 16.933334"
   version="1.1"
   id="svg5"
   inkscape:version="1.1.1 (3bf5ae0d25, 2021-09-20, custom)"
   sodipodi:docname="favicon.svg"
   inkscape:export-filename="/home/ludovitkramar/NFS/Informatica/Mis proyectos/En progreso/kyk_uptime/favicon256.png"
   inkscape:export-xdpi="384"
   inkscape:export-ydpi="384"
   xmlns:inkscape="http://www.inkscape.org/namespaces/inkscape"
   xmlns:sodipodi="http://sodipodi.sourceforge.net/DTD/sodipodi-0.dtd"
   xmlns:xlink="http://www.w3.org/1999/xlink"
   xmlns="http://www.w3.org/2000/svg"
   xmlns:svg="http://www.w3.org/2000/svg">
  <sodipodi:namedview
     id="namedview7"
     pagecolor="#ffffff"
     bordercolor="#666666"
     borderopacity="1.0"
     inkscape:pageshadow="2"
     inkscape:pageopacity="0"
     inkscape:pagecheckerboard="true"
     inkscape:document-units="px"
     showgrid="false"
     units="px"
     width="64px"
     inkscape:zoom="12.443434"
     inkscape:cx="30.297102"
     inkscape:cy="32.828558"
     inkscape:window-width="2560"
     inkscape:window-height="1371"
     inkscape:window-x="0"
     inkscape:window-y="32"
     inkscape:window-maximized="1"
     inkscape:current-layer="layer1" />
  <defs
     id="defs2">
    <linearGradient
       inkscape:collect="always"
       id="linearGradient7941">
      <stop
         style="stop-color:#ffffff;stop-opacity:0"
         offset="0"
         id="stop7937" />
      <stop
         style="stop-color:#ffffff;stop-opacity:0.85066926"
         offset="1"
         id="stop7939" />
    </linearGradient>
    <linearGradient
       inkscape:collect="always"
       id="linearGradient7201">
      <stop
         style="stop-color:#268d96;stop-opacity:1;"
         offset="0"
         id="stop7197" />
      <stop
         style="stop-color:#256d90;stop-opacity:1"
         offset="1"
         id="stop7199" />
    </linearGradient>
    <linearGradient
       id="linearGradient7175"
       inkscape:swatch="solid">
      <stop
         style="stop-color:#268d96;stop-opacity:1;"
         offset="0"
         id="stop7173" />
    </linearGradient>
    <radialGradient
       inkscape:collect="always"
       xlink:href="#linearGradient7201"
       id="radialGradient7269"
       cx="8.465909"
       cy="8.4556847"
       fx="8.465909"
       fy="8.4556847"
       r="8.4449301"
       gradientUnits="userSpaceOnUse" />
    <radialGradient
       inkscape:collect="always"
       xlink:href="#linearGradient7941"
       id="radialGradient7943"
       cx="6.7865949"
       cy="2.3088851"
       fx="6.7865949"
       fy="2.3088851"
       r="11.106909"
       gradientTransform="matrix(1.9611531,-3.7725271e-8,0,1.4370794,-8.3641842,-11.685532)"
       gradientUnits="userSpaceOnUse" />
    <clipPath
       clipPathUnits="userSpaceOnUse"
       id="clipPath8384">
      <use
         x="0"
         y="0"
         xlink:href="#path33"
         id="use8386"
         transform="matrix(0.91780232,-0.25595243,0.44455224,0.98715559,0,0)"
         width="100%"
         height="100%" />
    </clipPath>
  </defs>
  <g
     inkscape:label="Layer 1"
     inkscape:groupmode="layer"
     id="layer1">
    <circle
       style="fill:url(#radialGradient7269);fill-opacity:1;fill-rule:evenodd;stroke-width:0.26458334;stroke-miterlimit:4;stroke-dasharray:none;opacity:1"
       id="path33"
       cx="8.465909"
       cy="8.4556847"
       r="8.4449301" />
    <ellipse
       style="opacity:0.233507;fill:url(#radialGradient7943);fill-opacity:1;stroke-width:0.700424;stroke-miterlimit:4;stroke-dasharray:none"
       id="path7293"
       cx="4.9453673"
       cy="-8.3674812"
       rx="21.782349"
       ry="15.961508"
       transform="matrix(0.96799137,0.25098348,-0.43592189,0.8999845,0,0)"
       clip-path="url(#clipPath8384)" />
    <path
       style="fill:#ffffff;fill-opacity:1;stroke-width:0.256492"
       id="path4379"
       d="m 1.8698003,10.675407 c 0.2594326,0.07015 0.5301498,0.05555 0.7962272,0.05508 0.5613843,-0.0108 1.1234717,-0.07147 1.6747841,-0.177884 0.1378506,-0.02661 0.274386,-0.05954 0.411579,-0.08933 C 5.1784048,10.360694 5.5971222,10.226548 5.9996704,10.053511 6.2689199,9.9377702 6.5952758,9.7735562 6.8488265,9.6294501 7.4132227,9.3086744 7.9729472,8.979849 8.5350073,8.6550486 9.1081588,8.3068321 9.651671,7.9132952 10.170878,7.4901681 c 0.05518,-0.044966 0.761796,-0.6385285 0.819634,-0.6870847 0.430637,-0.3693045 0.862969,-0.7407685 1.249977,-1.1562266 0.191147,-0.2051974 0.219243,-0.2496935 0.386853,-0.4630668 0.209634,-0.2953767 0.390417,-0.6133772 0.518109,-0.9525506 0.01949,-0.051762 0.03586,-0.1046302 0.0538,-0.1569448 0.05641,-0.2100531 0.09895,-0.4279561 0.102411,-0.6462562 5.92e-4,-0.038201 -0.0023,-0.076381 -0.0034,-0.1145725 -9.44e-4,-0.2429781 -0.03662,-0.4802182 -0.09718,-0.7150698 -0.04031,-0.1706038 -0.115146,-0.3288548 -0.207914,-0.4768399 -0.04297,-0.064394 -0.09309,-0.133009 -0.172169,-0.1559654 -0.07036,-0.020423 -0.154023,-0.014695 -0.224847,-0.015048 -0.223916,0.0056 -0.448485,0.029094 -0.661778,0.1007324 -0.157336,0.052845 -0.197511,0.080527 -0.346701,0.156693 C 11.032185,2.535937 10.469524,2.852222 9.9211701,3.1918722 9.8904443,3.210899 9.574309,3.5121435 9.5609956,3.5251505 9.4095269,3.6731374 9.2976857,3.7898192 9.1559955,3.948669 9.0835035,4.0299403 9.0135605,4.1134225 8.9423431,4.1957994 8.8675038,4.2899562 8.7893549,4.381606 8.7178253,4.4782698 8.6331689,4.5926733 8.5541571,4.7111098 8.4740207,4.828684 8.1619657,5.2865235 7.8639447,5.7516358 7.5976987,6.2375958 7.4933843,6.4279935 7.3963389,6.6222362 7.295659,6.8145563 6.9272246,7.6038213 6.5449639,8.3876469 6.2229793,9.1973194 6.0557514,9.6178352 6.0093664,9.7683175 5.8645155,10.189547 c -0.2534406,0.734529 -0.4046987,1.498831 -0.5142452,2.266272 -0.019927,0.139598 -0.036699,0.27962 -0.055049,0.41943 -0.050885,0.471501 -0.074303,0.949733 0.00123,1.420071 0.035326,0.219952 0.069952,0.327897 0.1267609,0.538252 0.075563,0.209218 0.1442787,0.483844 0.3731566,0.583845 0.1465295,0.06402 0.2185753,0.03547 0.3772703,0.02202 0.084774,-0.02313 0.1707632,-0.04227 0.2543222,-0.06941 0.1790937,-0.05821 0.4637335,-0.174598 0.6295396,-0.252017 0.1214519,-0.05671 0.242757,-0.114351 0.3592246,-0.180586 1.7017455,-0.967788 1.2046943,-0.604368 2.0461558,-1.264062 0.5383237,-0.473779 1.0309747,-0.995726 1.5276367,-1.511621 0,0 -1.3066583,0.542191 -1.3066583,0.542191 v 0 c -0.1203579,0.128294 -0.23838,0.258792 -0.3610721,0.384886 -0.3892116,0.399999 -0.796644,0.783767 -1.2369176,1.128241 -0.596217,0.418518 -0.7901522,0.534519 0.5583111,-0.256906 0.103033,-0.06047 -0.2109129,0.112642 -0.3192754,0.163082 -0.1582358,0.07365 -0.3692663,0.153137 -0.5380321,0.2078 -0.065829,0.02131 -0.1329635,0.03843 -0.1994448,0.05764 -0.084254,0.01792 -0.181639,0.04751 -0.2707444,0.03729 -0.2097416,-0.024 -0.3131845,-0.24935 -0.4040111,-0.407609 -0.030206,-0.07377 -0.065113,-0.145798 -0.090617,-0.221297 -0.1319953,-0.390748 -0.1662943,-0.813919 -0.16347,-1.223574 8.749e-4,-0.125801 0.0094,-0.251434 0.014079,-0.377151 0.031451,-0.362763 0.034728,-0.467567 0.090845,-0.833354 0.093109,-0.606865 0.245296,-1.202099 0.4189396,-1.7906505 C 7.2920053,9.2028958 7.3524014,8.9873745 7.4763436,8.6190004 7.7457516,7.8182792 8.0574906,7.0280145 8.4738785,6.2902823 8.5880537,6.094051 8.6977682,5.8951891 8.8164039,5.7015885 9.2823168,4.9412702 9.8220373,4.2268985 10.430954,3.573944 c 0.221319,-0.2337673 0.442752,-0.4656607 0.68472,-0.6787768 0.07067,-0.062244 0.142422,-0.1233669 0.216346,-0.1817609 0.473224,-0.3738076 1.119583,-0.669446 -1.113015,0.5937777 0.05185,-0.032006 0.102235,-0.066482 0.155554,-0.096019 0.224449,-0.1243441 0.472329,-0.2018337 0.730844,-0.1951465 0.02127,0.00227 0.115662,0.013877 0.148873,0.013288 0.0096,-1.691e-4 0.01875,-0.00484 0.02832,-0.00476 0.03608,3.068e-4 0.06324,0.028314 0.08715,0.0509 0.09982,0.115603 0.173754,0.2466216 0.219604,0.392652 0.02716,0.095748 0.03505,0.1126805 0.05055,0.2130132 0.02358,0.1526147 0.01975,0.3070125 0.02253,0.4608574 -0.0068,0.2322459 -0.01642,0.4657851 -0.08389,0.6901968 -0.01448,0.04682 -0.02742,0.094149 -0.04347,0.1404617 C 11.427456,5.2830446 11.268329,5.5738877 11.08235,5.844404 10.939844,6.0371632 10.915335,6.0780097 10.752609,6.2645491 10.415633,6.6508363 10.038248,7.0000645 9.6555909,7.3407169 9.5297891,7.4496485 9.4059741,7.5608879 9.2781857,7.6675113 8.6159255,8.2200847 7.9145757,8.726783 7.1766241,9.1749469 7.4514928,9.0191735 7.7294946,8.8687368 8.0012305,8.7076264 8.1344974,8.6286132 7.7301685,8.8579736 7.5921943,8.9285582 7.0802752,9.1904447 6.5432754,9.402097 5.9823496,9.5348661 5.8525604,9.5623892 5.7234645,9.5933718 5.5929821,9.6174351 5.0961195,9.7090879 4.5878542,9.7466826 4.0832514,9.715183 3.9126155,9.7012767 3.9035194,9.7031805 3.7451717,9.6812626 3.664441,9.6700813 3.5761851,9.6596733 3.4990408,9.6307684 c -0.012372,-0.00463 -0.023633,-0.011789 -0.035448,-0.017695 0,0 -1.5937972,1.0623256 -1.5937972,1.0623256 z" />
  </g>
</svg>
